# xmcd
#
# Track frame offsets:
# 150
# 11347
# 22249
# 32736
# 42046
# 53803
# 69796
# 81748
# 89482
# 99979
# 110356
# 122834
# 137339
# 147573
# 160183
# 169199
#
# Disc length: 2404 seconds
#
#
# Revision: 0
# Processed by: cddbd v1.5.1PL2 Copyright (c) Steve Scherf et al.
# Submitted via: FreeRIP 2.944 
#
DISCID=d2096210
DTITLE=Irma Thomas One two - One two
DYEAR=1989
DGENRE=r&b
TTITLE0=I did my part (1961)
TTITLE1=Cry on (1960)
TTITLE2=For goodness sake (1961)
TTITLE3=It's raining (1961)
TTITLE4=Look up (aka Whenever)(1961)
TTITLE5=It's too soon to know (1961)
TTITLE6=Somebody told you (1962)
TTITLE7=Your love is true (1960)(demo with Allen Toussaint, piano)
TTITLE8=(You ain't) Hittin' on nothing (1962)
TTITLE9=Gone (1961)
TTITLE10=Two winters long (1962)
TTITLE11=I done got over (1961)
TTITLE12=That's all I ask (1961)
TTITLE13=Ruler of my heart (1962)
TTITLE14=Girl needs boy (1960)
TTITLE15=It's too soon to know (1960)(demo with Allen Toussaint, piano)
EXTD=
EXTT0=
EXTT1=
EXTT2=
EXTT3=
EXTT4=
EXTT5=
EXTT6=
EXTT7=
EXTT8=
EXTT9=
EXTT10=
EXTT11=
EXTT12=
EXTT13=
EXTT14=
EXTT15=
PLAYORDER=
